<?xml version="1.0" standalone="no"?>
<!DOCTYPE svg PUBLIC "-//W3C//DTD SVG 20010904//EN"
 "http://www.w3.org/TR/2001/REC-SVG-20010904/DTD/svg10.dtd">
<svg version="1.0" xmlns="http://www.w3.org/2000/svg"
 width="512.000000pt" height="512.000000pt" viewBox="0 0 512.000000 512.000000"
 preserveAspectRatio="xMidYMid meet">
<metadata>
Created by potrace 1.14, written by Peter Selinger 2001-2017
</metadata>
<g transform="translate(0.000000,512.000000) scale(0.100000,-0.100000)"
fill="#000000" stroke="none">
<path d="M2363 4800 c-861 -84 -1581 -622 -1897 -1420 -103 -261 -150 -518
-150 -820 0 -222 14 -349 60 -539 107 -438 365 -861 704 -1154 691 -597 1654
-725 2465 -328 601 294 1039 836 1196 1476 50 205 63 319 63 545 0 233 -15
354 -69 566 -223 871 -960 1530 -1854 1658 -139 20 -393 28 -518 16z m241
-139 c14 -36 26 -68 26 -72 0 -12 -66 -20 -109 -13 -48 8 -48 8 0 113 35 76
42 74 83 -28z m71 -192 c566 -48 1046 -347 1340 -834 120 -199 217 -473 250
-708 5 -39 3 -48 -10 -54 -22 -8 -35 13 -35 55 0 98 -79 359 -159 527 -107
223 -203 357 -373 521 -226 217 -491 354 -823 425 -96 21 -137 24 -320 24
-178 0 -226 -4 -317 -23 -520 -109 -941 -434 -1173 -906 -86 -175 -144 -372
-170 -578 -5 -40 -10 -48 -27 -48 -19 0 -20 4 -14 63 11 97 54 279 93 391 123
356 356 657 671 869 217 146 522 251 803 276 134 12 132 12 264 0z m85 -130
c342 -47 651 -198 890 -439 207 -207 339 -426 425 -701 33 -109 65 -278 53
-285 -15 -9 -16 -4 -38 110 -90 466 -375 870 -775 1099 -140 80 -307 139 -510
179 -153 31 -385 30 -535 -1 -137 -29 -316 -89 -421 -141 -426 -214 -734 -623
-828 -1098 -11 -54 -22 -114 -26 -134 -3 -21 -11 -38 -17 -38 -16 0 -2 127 28
245 126 499 494 923 961 1105 269 106 515 136 793 99z m-415 -129 c0 -9 -15
-18 -40 -23 -22 -5 -76 -17 -119 -28 -55 -13 -83 -16 -90 -9 -19 19 17 40 104
59 98 23 145 23 145 1z m259 -203 c13 -13 33 -54 46 -93 68 -203 120 -327 157
-370 72 -86 67 -59 69 -378 1 -160 2 -351 3 -424 l1 -133 28 3 27 3 3 418 c1
287 6 417 13 417 6 0 24 -13 40 -30 l30 -29 -3 -405 -3 -405 -80 -83 c-44 -46
-120 -127 -169 -182 -99 -109 -160 -156 -178 -138 -8 8 -8 73 0 249 13 302 3
1476 -14 1493 -8 8 -13 0 -18 -32 -4 -24 -7 -420 -6 -880 1 -715 -1 -838 -13
-838 -8 0 -54 44 -103 98 -49 53 -130 140 -180 192 -50 52 -98 109 -107 127
-15 28 -17 79 -17 423 l0 392 31 30 c18 19 34 27 40 21 5 -5 10 -188 11 -428
l3 -420 25 0 25 0 5 435 c4 363 7 439 20 458 8 12 18 22 21 22 20 0 69 102
134 281 86 235 105 260 159 206z m-989 -117 c4 -6 -34 -53 -83 -105 -132 -140
-264 -344 -324 -502 -15 -41 -39 -55 -53 -33 -10 17 55 166 119 273 71 119
173 253 248 327 49 48 80 61 93 40z m2276 -465 c26 -55 60 -135 75 -178 24
-69 25 -80 12 -93 -20 -20 -27 -9 -63 91 -16 43 -53 126 -82 184 -56 110 -61
126 -40 134 19 8 46 -30 98 -138z m-1831 -456 c0 -257 3 -377 11 -392 7 -11
66 -82 131 -156 66 -75 124 -146 129 -159 11 -29 12 -569 1 -576 -18 -11 -362
274 -482 401 -41 43 -104 114 -140 158 l-65 79 -3 116 c-8 254 50 468 181 663
61 91 199 237 223 237 12 0 14 -65 14 -371z m1102 314 c89 -85 153 -174 214
-298 84 -172 105 -264 111 -480 6 -212 26 -169 -183 -395 -84 -91 -166 -170
-209 -200 -38 -26 -114 -87 -167 -134 -53 -47 -102 -86 -107 -86 -6 0 -11 12
-11 28 -1 15 -5 132 -9 260 -5 137 -5 247 0 266 5 20 48 75 105 137 53 57 114
126 135 152 l39 49 0 379 c0 263 3 379 11 379 6 0 38 -26 71 -57z m-1582 -568
c-7 -49 -9 -116 -5 -181 8 -113 -3 -136 -32 -67 -12 30 -14 65 -11 168 3 71
10 143 17 159 11 27 13 28 27 14 14 -13 14 -26 4 -93z m2014 88 c26 -86 32
-258 13 -332 -23 -87 -34 -59 -41 106 -4 87 -9 177 -12 201 -5 37 -4 42 14 42
11 0 23 -8 26 -17z m937 -140 c8 -20 7 -70 -1 -172 -27 -343 -97 -594 -241
-871 -238 -455 -591 -778 -1057 -966 -317 -128 -700 -158 -1051 -82 -275 59
-576 206 -811 395 -96 78 -268 256 -343 355 -171 228 -308 521 -382 818 -51
205 -72 531 -34 538 14 3 17 -14 23 -120 29 -531 237 -1010 601 -1387 269
-279 567 -453 920 -540 163 -39 226 -46 440 -45 177 0 226 4 315 23 431 91
822 332 1106 681 270 333 445 795 461 1215 3 88 10 166 16 173 15 19 27 14 38
-15z m-331 -142 c0 -57 -36 -262 -66 -370 -122 -451 -453 -883 -834 -1090 -82
-45 -90 -47 -90 -28 0 6 36 31 79 54 115 62 233 152 341 262 301 302 479 671
530 1091 13 109 16 120 30 120 5 0 10 -18 10 -39z m-3230 -96 c65 -561 414
-1099 867 -1336 71 -37 81 -46 61 -54 -47 -18 -305 161 -448 311 -230 241
-384 516 -465 829 -48 187 -70 407 -36 369 4 -5 14 -58 21 -119z m-153 -60
c15 -103 69 -315 109 -425 117 -328 417 -698 724 -895 102 -66 253 -137 381
-180 162 -54 180 -54 303 -11 57 21 112 43 122 50 25 19 43 266 21 299 -8 12
-88 101 -177 197 -90 96 -207 225 -262 287 -55 62 -109 115 -120 119 -12 3
-71 9 -132 13 -125 8 -154 19 -209 80 -72 80 -117 204 -138 382 -9 79 -9 102
1 115 17 20 18 19 268 -261 113 -126 210 -233 215 -236 4 -3 19 -4 32 -1 31 5
81 -42 323 -303 102 -110 189 -201 193 -203 5 -2 9 165 9 372 0 413 -2 400 59
357 26 -19 27 -19 51 0 51 39 50 46 50 -361 0 -322 2 -380 14 -373 7 4 102
105 211 223 278 303 277 303 323 295 36 -6 38 -4 82 52 107 139 395 443 419
443 11 0 13 -16 7 -94 -8 -118 -45 -268 -88 -355 -29 -57 -40 -70 -86 -95 -48
-25 -69 -29 -185 -37 -73 -4 -133 -8 -133 -9 -1 0 -86 -95 -189 -210 -103
-116 -227 -253 -275 -305 -51 -55 -90 -107 -93 -122 -5 -28 16 -224 28 -254 8
-21 228 -103 271 -102 43 1 191 47 295 92 356 154 680 463 858 820 27 53 64
137 84 186 37 96 99 331 120 455 9 55 16 76 28 78 27 5 31 -41 14 -136 -81
-437 -245 -765 -530 -1061 -330 -341 -761 -522 -1248 -521 -148 0 -219 9 -387
46 -327 72 -572 200 -808 420 -292 272 -506 653 -581 1034 -38 198 -39 235 -4
228 14 -3 20 -22 30 -93z"/>
</g>
</svg>
